<svg xmlns="http://www.w3.org/2000/svg" viewBox="0 0 91.97 91.97"><defs><style>.cls-1{fill:#3b1c4e;}.cls-2{fill:#724c8d;}.cls-2,.cls-3{opacity:0.16;}.cls-3{fill:#8959a4;}</style></defs><g id="Layer_2" data-name="Layer 2"><g id="walk_bg" data-name="walk bg"><path class="cls-1" d="M81.79,17.14c-.73-.91-1.49-1.79-2.3-2.64L65.9,15.86Z"/><path class="cls-1" d="M74.38,9.82a46,46,0,0,0-59.12,2L37.2,13.55Z"/><path class="cls-1" d="M46,92A45.81,45.81,0,0,0,76.33,80.53H15.64A45.81,45.81,0,0,0,46,92Z"/><path class="cls-1" d="M85.6,22.63,37.2,18.74l-30.31,3a44.8,44.8,0,0,0-4.58,9.81H89.66A45.3,45.3,0,0,0,85.6,22.63Z"/><path class="cls-1" d="M91.05,36.78H.92A45.56,45.56,0,0,0,0,45.66L91.43,53A45.27,45.27,0,0,0,92,46,46.63,46.63,0,0,0,91.05,36.78Z"/><path class="cls-1" d="M10.59,75.34H81.38a45.65,45.65,0,0,0,7.57-13L7.15,70.61A44.23,44.23,0,0,0,10.59,75.34Z"/><path class="cls-1" d="M.26,50.87A45.32,45.32,0,0,0,4.43,65.69l80.05-8Z"/><path class="cls-1" d="M65.9,15.86,79.49,14.5a45.3,45.3,0,0,0-5.11-4.68L37.2,13.55Z"/><path class="cls-2" d="M65.9,15.86,79.49,14.5a45.3,45.3,0,0,0-5.11-4.68L37.2,13.55Z"/><path class="cls-1" d="M10.62,16.6a44.47,44.47,0,0,0-3.73,5.18l30.31-3Z"/><path class="cls-2" d="M10.62,16.6a44.47,44.47,0,0,0-3.73,5.18l30.31-3Z"/><path class="cls-1" d="M4.43,65.69a42.75,42.75,0,0,0,2.72,4.92L89,62.39a41.55,41.55,0,0,0,1.39-4.26l-5.86-.48Z"/><path class="cls-3" d="M4.43,65.69a42.75,42.75,0,0,0,2.72,4.92L89,62.39a41.55,41.55,0,0,0,1.39-4.26l-5.86-.48Z"/><path class="cls-1" d="M89.66,31.59H2.31A43.09,43.09,0,0,0,.92,36.78H91.05A43.09,43.09,0,0,0,89.66,31.59Z"/><path class="cls-3" d="M89.66,31.59H2.31A43.09,43.09,0,0,0,.92,36.78H91.05A43.09,43.09,0,0,0,89.66,31.59Z"/><path class="cls-1" d="M15.64,80.53H76.33a45,45,0,0,0,5-5.19H10.59A45,45,0,0,0,15.64,80.53Z"/><path class="cls-2" d="M15.64,80.53H76.33a45,45,0,0,0,5-5.19H10.59A45,45,0,0,0,15.64,80.53Z"/><path class="cls-1" d="M0,46a46.2,46.2,0,0,0,.26,4.88l84.22,6.78L90.63,57a40.82,40.82,0,0,0,.8-4L0,45.66C0,45.77,0,45.88,0,46Z"/><path class="cls-2" d="M0,46a46.2,46.2,0,0,0,.26,4.88l84.22,6.78L90.63,57a40.82,40.82,0,0,0,.8-4L0,45.66C0,45.77,0,45.88,0,46Z"/><path class="cls-1" d="M90.34,58.13c.11-.36.2-.72.29-1.09l-6.15.61Z"/><path class="cls-3" d="M90.34,58.13c.11-.36.2-.72.29-1.09l-6.15.61Z"/><path class="cls-2" d="M90.34,58.13c.11-.36.2-.72.29-1.09l-6.15.61Z"/><path class="cls-1" d="M15.26,11.78A44.43,44.43,0,0,0,11,16.18L37.2,13.55Z"/><path class="cls-3" d="M15.26,11.78A44.43,44.43,0,0,0,11,16.18L37.2,13.55Z"/><path class="cls-1" d="M37.2,18.74l48.4,3.89a44.39,44.39,0,0,0-3.81-5.49L65.9,15.86Z"/><path class="cls-3" d="M37.2,18.74l48.4,3.89a44.39,44.39,0,0,0-3.81-5.49L65.9,15.86Z"/><path class="cls-2" d="M8.5,16.42l2.12.18q.17-.21.36-.42Z"/><path class="cls-3" d="M8.5,16.42l2.12.18q.17-.21.36-.42Z"/><path class="cls-1" d="M65.9,15.86,37.2,13.55,11,16.18q-.2.21-.36.42L37.2,18.74Z"/><path class="cls-2" d="M65.9,15.86,37.2,13.55,11,16.18q-.2.21-.36.42L37.2,18.74Z"/><path class="cls-3" d="M65.9,15.86,37.2,13.55,11,16.18q-.2.21-.36.42L37.2,18.74Z"/></g></g></svg>