<svg xmlns="http://www.w3.org/2000/svg" viewBox="0 0 92.25 91.97"><defs><style>.cls-1{isolation:isolate;}.cls-2{fill:#3b1c4e;}.cls-3{fill:#724c8d;}.cls-3,.cls-4{opacity:0.16;}.cls-4{fill:#8959a4;}.cls-5{fill:#d4b1f2;mix-blend-mode:soft-light;}</style></defs><g class="cls-1"><g id="Layer_2" data-name="Layer 2"><g id="walk_bg" data-name="walk bg"><path class="cls-2" d="M82.07,17.14c-.73-.91-1.49-1.79-2.3-2.64L66.18,15.86Z"/><path class="cls-2" d="M74.66,9.82a46,46,0,0,0-59.12,2l21.94,1.77Z"/><path class="cls-2" d="M46.26,92A45.81,45.81,0,0,0,76.61,80.53H15.92A45.81,45.81,0,0,0,46.26,92Z"/><path class="cls-2" d="M85.88,22.63l-48.4-3.89-30.31,3a44.8,44.8,0,0,0-4.58,9.81H89.94A45.3,45.3,0,0,0,85.88,22.63Z"/><path class="cls-2" d="M91.33,36.78H1.2a45.56,45.56,0,0,0-.91,8.88L91.71,53a45.27,45.27,0,0,0,.54-7A46.63,46.63,0,0,0,91.33,36.78Z"/><path class="cls-2" d="M10.87,75.34H81.66a45.65,45.65,0,0,0,7.57-13L7.43,70.61A44.23,44.23,0,0,0,10.87,75.34Z"/><path class="cls-2" d="M.54,50.87A45.32,45.32,0,0,0,4.71,65.69l80.05-8Z"/><path class="cls-2" d="M66.18,15.86,79.77,14.5a45.3,45.3,0,0,0-5.11-4.68L37.48,13.55Z"/><path class="cls-3" d="M66.18,15.86,79.77,14.5a45.3,45.3,0,0,0-5.11-4.68L37.48,13.55Z"/><path class="cls-2" d="M10.9,16.6a44.47,44.47,0,0,0-3.73,5.18l30.31-3Z"/><path class="cls-3" d="M10.9,16.6a44.47,44.47,0,0,0-3.73,5.18l30.31-3Z"/><path class="cls-2" d="M4.71,65.69a42.75,42.75,0,0,0,2.72,4.92l81.8-8.22a41.55,41.55,0,0,0,1.39-4.26l-5.86-.48Z"/><path class="cls-4" d="M4.71,65.69a42.75,42.75,0,0,0,2.72,4.92l81.8-8.22a41.55,41.55,0,0,0,1.39-4.26l-5.86-.48Z"/><path class="cls-2" d="M89.94,31.59H2.59A43.09,43.09,0,0,0,1.2,36.78H91.33A43.09,43.09,0,0,0,89.94,31.59Z"/><path class="cls-4" d="M89.94,31.59H2.59A43.09,43.09,0,0,0,1.2,36.78H91.33A43.09,43.09,0,0,0,89.94,31.59Z"/><path class="cls-2" d="M15.92,80.53H76.61a45,45,0,0,0,5-5.19H10.87A45,45,0,0,0,15.92,80.53Z"/><path class="cls-3" d="M15.92,80.53H76.61a45,45,0,0,0,5-5.19H10.87A45,45,0,0,0,15.92,80.53Z"/><path class="cls-2" d="M.28,46a46.2,46.2,0,0,0,.26,4.88l84.22,6.78L90.91,57a40.82,40.82,0,0,0,.8-4L.29,45.66C.28,45.77.28,45.88.28,46Z"/><path class="cls-3" d="M.28,46a46.2,46.2,0,0,0,.26,4.88l84.22,6.78L90.91,57a40.82,40.82,0,0,0,.8-4L.29,45.66C.28,45.77.28,45.88.28,46Z"/><path class="cls-2" d="M90.62,58.13c.11-.36.2-.72.29-1.09l-6.15.61Z"/><path class="cls-4" d="M90.62,58.13c.11-.36.2-.72.29-1.09l-6.15.61Z"/><path class="cls-3" d="M90.62,58.13c.11-.36.2-.72.29-1.09l-6.15.61Z"/><path class="cls-2" d="M15.54,11.78a44.43,44.43,0,0,0-4.28,4.4l26.22-2.63Z"/><path class="cls-4" d="M15.54,11.78a44.43,44.43,0,0,0-4.28,4.4l26.22-2.63Z"/><path class="cls-2" d="M37.48,18.74l48.4,3.89a44.39,44.39,0,0,0-3.81-5.49L66.18,15.86Z"/><path class="cls-4" d="M37.48,18.74l48.4,3.89a44.39,44.39,0,0,0-3.81-5.49L66.18,15.86Z"/><path class="cls-3" d="M8.78,16.42l2.12.18q.16-.21.36-.42Z"/><path class="cls-4" d="M8.78,16.42l2.12.18q.16-.21.36-.42Z"/><path class="cls-2" d="M66.18,15.86l-28.7-2.31L11.26,16.18q-.19.21-.36.42l26.58,2.14Z"/><path class="cls-3" d="M66.18,15.86l-28.7-2.31L11.26,16.18q-.19.21-.36.42l26.58,2.14Z"/><path class="cls-4" d="M66.18,15.86l-28.7-2.31L11.26,16.18q-.19.21-.36.42l26.58,2.14Z"/><circle class="cls-5" cx="45.96" cy="45.96" r="45.96"/></g></g></g></svg>